<?xml version="1.0" encoding="UTF-8" standalone="no"?>
<!-- Created with Inkscape (http://www.inkscape.org/) -->

<svg
   width="170mm"
   height="170mm"
   viewBox="0 0 170 170"
   version="1.1"
   id="svg5"
   inkscape:version="1.1.1 (3bf5ae0d25, 2021-09-20)"
   sodipodi:docname="itlantida_logo.svg"
   xmlns:inkscape="http://www.inkscape.org/namespaces/inkscape"
   xmlns:sodipodi="http://sodipodi.sourceforge.net/DTD/sodipodi-0.dtd"
   xmlns="http://www.w3.org/2000/svg"
   xmlns:svg="http://www.w3.org/2000/svg">
  <sodipodi:namedview
     id="namedview7"
     pagecolor="#ffffff"
     bordercolor="#666666"
     borderopacity="1.0"
     inkscape:pageshadow="2"
     inkscape:pageopacity="0.0"
     inkscape:pagecheckerboard="0"
     inkscape:document-units="mm"
     showgrid="false"
     inkscape:zoom="1.28"
     inkscape:cx="237.10938"
     inkscape:cy="300.78125"
     inkscape:window-width="1920"
     inkscape:window-height="1007"
     inkscape:window-x="0"
     inkscape:window-y="0"
     inkscape:window-maximized="1"
     inkscape:current-layer="layer1" />
  <defs
     id="defs2" />
  <g
     inkscape:label="Слой 1"
     inkscape:groupmode="layer"
     id="layer1"
     transform="translate(-20,-63.5)">
    <rect
       style="fill:#007dff;fill-opacity:1;stroke:none;stroke-width:4.53333;stroke-linecap:square;stroke-linejoin:miter;stroke-miterlimit:4;stroke-dasharray:none"
       id="rect123593"
       width="170"
       height="170"
       x="20"
       y="63.5" />
    <g
       aria-label="IIitII"
       id="text1633"
       style="font-size:66.6143px;line-height:1.25;font-family:Roboto;-inkscape-font-specification:Roboto;stroke-width:1.66536"
       transform="translate(-84.948456,80.804703)" />
    <g
       id="text5739"
       style="font-size:10.5833px;line-height:1.25;font-family:Roboto;-inkscape-font-specification:Roboto;stroke-width:0.264583"
       transform="translate(-84.948456,80.804703)" />
    <g
       id="text12817"
       style="font-size:10.5833px;line-height:1.25;font-family:Roboto;-inkscape-font-specification:Roboto;stroke-width:0.264583"
       transform="translate(-84.948456,80.804703)" />
    <path
       id="path146675"
       style="fill:#fffafa;stroke:#000000;stroke-width:2.40212;stroke-linecap:square;stroke-linejoin:miter;stroke-miterlimit:4;stroke-dasharray:none"
       d="m 101.29421,99.563293 -57.88277,43.237667 122.82092,0.002 z m -0.0155,10.504267 38.9971,25.96637 -73.757763,-0.001 z m 58.00846,86.74274 h -9.14935 v -48.36573 h 9.14935 z m -18.67411,0 h -9.14935 v -48.36573 h 9.14935 z M 113.138,151.97525 v 8.78389 h 6.77231 v 4.79426 H 113.138 v 22.49611 q 0,2.17922 0.90521,3.28558 0.90521,1.07284 3.08442,1.07284 1.07284,0 2.95031,-0.40232 v 5.02895 q -2.44742,0.67053 -4.76073,0.67053 -4.15726,0 -6.26941,-2.51447 -2.11216,-2.51447 -2.11216,-7.14111 V 165.5534 h -6.60467 v -4.79426 h 6.60467 v -8.78389 z m -18.338863,45.05931 h -6.202359 v -36.27542 h 6.202359 z m -6.705253,-45.89747 q 0,-1.50868 0.905211,-2.54799 0.938734,-1.03932 2.749153,-1.03932 1.810417,0 2.749153,1.03932 0.938736,1.03931 0.938736,2.54799 0,1.50869 -0.938736,2.51447 -0.938736,1.00579 -2.749153,1.00579 -1.810419,0 -2.749153,-1.00579 -0.905211,-1.00578 -0.905211,-2.51447 z M 77.555616,196.8103 h -9.14935 v -48.36573 h 9.14935 z m -18.674127,0 h -9.14935 v -48.36573 h 9.14935 z" />
  </g>
</svg>
